<svg version="1.1" id="Layer_1" xmlns="http://www.w3.org/2000/svg" xmlns:xlink="http://www.w3.org/1999/xlink" x="0px" y="0px"
	 width="100%" viewBox="0 0 217 51" enable-background="new 0 0 217 51" xml:space="preserve">
<path fill="#040404" opacity="1.000000" stroke="none" 
	d="
M99.000000,1.000000 
	C99.444443,1.000000 99.888893,1.000000 100.965088,1.290894 
	C103.575043,1.713479 105.553101,1.957459 107.531487,1.960214 
	C144.005081,2.011007 180.478745,2.032970 216.974274,2.523499 
	C216.997437,19.323982 216.998718,35.661991 217.000000,52.000000 
	C177.979111,52.000000 138.958206,52.000000 99.520462,51.533840 
	C99.069077,34.378452 99.034538,17.689226 99.000000,1.000000 
M174.045609,40.572025 
	C172.802750,41.146400 171.559875,41.720772 171.345032,41.820065 
	C169.590134,39.980103 168.688126,38.287579 167.418350,37.940491 
	C166.411484,37.665276 164.244095,38.763592 163.863922,39.744820 
	C163.301712,41.195965 163.271454,43.522034 164.113815,44.666782 
	C165.016876,45.894009 167.148422,46.636314 168.821060,46.799725 
	C173.868790,47.292858 177.423492,44.437248 179.988022,40.538845 
	C183.732971,34.846046 187.000778,28.839108 190.753754,23.152035 
	C191.890625,21.429270 194.009369,20.374937 195.580688,18.909668 
	C196.357605,18.185188 196.912506,17.222651 197.567856,16.367823 
	C196.532028,15.750498 195.543823,14.734058 194.449905,14.603514 
	C192.503342,14.371216 190.470810,14.522696 188.516129,14.804401 
	C187.026428,15.019094 185.601562,15.683489 184.147842,16.147821 
	C184.955048,17.507282 185.762238,18.866741 186.773193,20.569380 
	C185.118454,23.413010 183.252991,26.618784 181.387512,29.824560 
	C181.005539,29.749645 180.623550,29.674730 180.241562,29.599815 
	C179.762177,26.264816 179.282776,22.929819 178.948471,20.604132 
	C180.701950,18.723320 181.789658,17.556627 182.877365,16.389935 
	C182.178970,15.800856 181.505020,14.741261 180.777985,14.703482 
	C177.487869,14.532517 174.175705,14.540093 170.888565,14.750338 
	C170.168655,14.796383 169.093399,15.859870 168.963882,16.592960 
	C168.849442,17.240784 169.771561,18.123487 170.330551,18.827404 
	C171.389648,20.161102 173.022583,21.276121 173.511597,22.777025 
	C174.586731,26.076817 175.419403,29.531723 175.726364,32.978939 
	C175.931488,35.282375 175.061386,37.681553 174.045609,40.572025 
M114.101662,34.344410 
	C116.760910,39.120831 121.227768,39.452728 125.823944,38.748974 
	C130.944977,37.964863 134.915085,35.186874 136.378189,30.046978 
	C137.738800,25.267136 138.265076,20.248039 139.657928,15.480121 
	C140.113541,13.920481 142.111404,12.792982 143.449814,11.515904 
	C144.387741,10.620965 145.403442,9.807523 146.384399,8.957682 
	C145.213623,8.312389 144.084381,7.226009 142.863678,7.111097 
	C140.086319,6.849645 137.242126,6.863410 134.468536,7.164930 
	C132.882538,7.337347 131.381760,8.293619 129.842606,8.896969 
	C131.092316,9.782915 132.343140,10.667293 133.591080,11.555736 
	C133.986725,11.837413 134.374649,12.129931 134.785355,12.431627 
	C134.176437,15.734145 133.740891,19.023520 132.931549,22.218193 
	C132.163742,25.248898 131.752014,28.890976 129.797836,30.946901 
	C128.002182,32.836048 124.398087,33.351608 121.507538,33.640705 
	C120.658951,33.725574 119.526680,30.974045 119.050743,30.284746 
	C121.882561,29.320272 124.088417,29.076447 125.480064,27.883110 
	C126.186676,27.277187 125.849304,23.848692 125.251007,23.620871 
	C123.294518,22.875866 120.676804,22.231134 118.901161,22.966726 
	C114.323006,24.863297 112.860855,28.793634 114.101662,34.344410 
M165.314346,18.624321 
	C162.798340,17.063360 160.389633,14.397397 157.746979,14.140780 
	C148.404953,13.233616 140.945419,23.096485 143.518997,32.250225 
	C144.703125,36.461914 147.354950,38.596260 151.847733,38.662312 
	C161.345917,38.801960 167.381348,30.466158 165.314346,18.624321 
z"/>
<path fill="#FBFBFB" opacity="1.000000" stroke="none" 
	d="
M98.531342,1.000000 
	C99.034538,17.689226 99.069077,34.378452 99.051804,51.533840 
	C66.391289,52.000000 33.782578,52.000000 1.086932,52.000000 
	C1.086932,35.088463 1.086932,18.176414 1.086932,1.000000 
	C33.353748,1.000000 65.708214,1.000000 98.531342,1.000000 
M5.018238,39.798885 
	C11.014601,39.749695 17.013624,39.793049 23.006454,39.620880 
	C27.485155,39.492214 31.268906,37.960739 32.563118,33.138775 
	C33.760532,28.677446 31.890795,25.409725 27.992163,23.209978 
	C33.550640,16.637989 31.903631,9.225655 24.486250,8.470421 
	C17.631784,7.772503 10.650330,8.321795 3.330396,8.321795 
	C3.330396,14.367400 3.225745,19.839140 3.362028,25.304873 
	C3.480597,30.060167 3.871368,34.808678 5.018238,39.798885 
M78.127892,17.281511 
	C77.836624,14.367146 77.545364,11.452779 77.250610,8.503522 
	C74.359291,8.503522 71.779289,8.503522 69.122292,8.503522 
	C69.122292,19.021301 69.122292,29.239254 69.122292,39.591675 
	C74.384262,40.481079 79.363770,38.308571 84.412262,40.055393 
	C85.999146,40.604465 88.886421,38.928783 90.517723,37.511059 
	C94.459267,34.085564 95.148941,25.468971 92.282951,20.763254 
	C89.648064,16.436989 85.590942,15.398620 78.127892,17.281511 
M45.399776,39.626282 
	C54.833523,41.365467 61.208115,38.548054 63.018509,31.839224 
	C64.796013,25.252285 61.984268,19.282827 56.092201,17.134361 
	C48.707092,14.441481 40.747097,17.168722 38.005680,23.331142 
	C35.189968,29.660566 37.743149,35.842491 45.399776,39.626282 
z"/>
<path fill="#201F20" opacity="1.000000" stroke="none" 
	d="
M216.952377,2.061024 
	C180.478745,2.032970 144.005081,2.011007 107.531487,1.960214 
	C105.553101,1.957459 103.575043,1.713479 101.298416,1.290894 
	C139.354233,1.000000 177.708450,1.000000 216.521362,1.265342 
	C216.970810,1.707464 216.961594,1.884244 216.952377,2.061024 
z"/>
<path fill="#2C2C2C" opacity="1.000000" stroke="none" 
	d="
M216.974274,2.523499 
	C216.961594,1.884244 216.970810,1.707464 216.990021,1.265340 
	C217.333344,1.999997 217.953369,2.998908 217.957169,4.000160 
	C218.017929,19.999931 218.000000,36.000000 217.500000,52.000000 
	C216.998718,35.661991 216.997437,19.323982 216.974274,2.523499 
z"/>
<path fill="#EEEEEE" opacity="1.000000" stroke="none" 
	d="
M174.359039,40.304955 
	C175.061386,37.681553 175.931488,35.282375 175.726364,32.978939 
	C175.419403,29.531723 174.586731,26.076817 173.511597,22.777025 
	C173.022583,21.276121 171.389648,20.161102 170.330551,18.827404 
	C169.771561,18.123487 168.849442,17.240784 168.963882,16.592960 
	C169.093399,15.859870 170.168655,14.796383 170.888565,14.750338 
	C174.175705,14.540093 177.487869,14.532517 180.777985,14.703482 
	C181.505020,14.741261 182.178970,15.800856 182.877365,16.389935 
	C181.789658,17.556627 180.701950,18.723320 178.948471,20.604132 
	C179.282776,22.929819 179.762177,26.264816 180.241562,29.599815 
	C180.623550,29.674730 181.005539,29.749645 181.387512,29.824560 
	C183.252991,26.618784 185.118454,23.413010 186.773193,20.569380 
	C185.762238,18.866741 184.955048,17.507282 184.147842,16.147821 
	C185.601562,15.683489 187.026428,15.019094 188.516129,14.804401 
	C190.470810,14.522696 192.503342,14.371216 194.449905,14.603514 
	C195.543823,14.734058 196.532028,15.750498 197.567856,16.367825 
	C196.912506,17.222651 196.357605,18.185188 195.580688,18.909668 
	C194.009369,20.374937 191.890625,21.429270 190.753754,23.152035 
	C187.000778,28.839108 183.732971,34.846046 179.988022,40.538845 
	C177.423492,44.437248 173.868790,47.292858 168.821060,46.799725 
	C167.148422,46.636314 165.016876,45.894009 164.113815,44.666782 
	C163.271454,43.522034 163.301712,41.195965 163.863922,39.744820 
	C164.244095,38.763592 166.411484,37.665276 167.418350,37.940491 
	C168.688126,38.287579 169.590134,39.980103 171.345032,41.820065 
	C171.559875,41.720772 172.802750,41.146400 174.359039,40.304955 
z"/>
<path fill="#ECECEC" opacity="1.000000" stroke="none" 
	d="
M114.012909,33.984734 
	C112.860855,28.793634 114.323006,24.863297 118.901161,22.966726 
	C120.676804,22.231134 123.294518,22.875866 125.251007,23.620871 
	C125.849304,23.848692 126.186676,27.277187 125.480064,27.883110 
	C124.088417,29.076447 121.882561,29.320272 119.050743,30.284746 
	C119.526680,30.974045 120.658951,33.725574 121.507538,33.640705 
	C124.398087,33.351608 128.002182,32.836048 129.797836,30.946901 
	C131.752014,28.890976 132.163742,25.248898 132.931549,22.218193 
	C133.740891,19.023520 134.176437,15.734145 134.785355,12.431627 
	C134.374649,12.129931 133.986725,11.837413 133.591080,11.555736 
	C132.343140,10.667293 131.092316,9.782915 129.842606,8.896969 
	C131.381760,8.293619 132.882538,7.337347 134.468536,7.164930 
	C137.242126,6.863410 140.086319,6.849645 142.863678,7.111097 
	C144.084381,7.226009 145.213623,8.312389 146.384399,8.957682 
	C145.403442,9.807523 144.387741,10.620965 143.449814,11.515904 
	C142.111404,12.792982 140.113541,13.920481 139.657928,15.480121 
	C138.265076,20.248039 137.738800,25.267136 136.378189,30.046978 
	C134.915085,35.186874 130.944977,37.964863 125.823944,38.748974 
	C121.227768,39.452728 116.760910,39.120831 114.012909,33.984734 
z"/>
<path fill="#EBEBEB" opacity="1.000000" stroke="none" 
	d="
M165.498596,18.993179 
	C167.381348,30.466158 161.345917,38.801960 151.847733,38.662312 
	C147.354950,38.596260 144.703125,36.461914 143.518997,32.250225 
	C140.945419,23.096485 148.404953,13.233616 157.746979,14.140780 
	C160.389633,14.397397 162.798340,17.063360 165.498596,18.993179 
M160.840927,23.516979 
	C159.828018,21.828274 158.934006,18.839403 157.776382,18.733553 
	C155.656631,18.539728 152.651703,19.441113 151.353500,20.999844 
	C149.694061,22.992315 148.886108,26.042618 148.630600,28.724623 
	C148.477921,30.327276 149.716141,33.062565 150.993546,33.550972 
	C152.630966,34.177021 155.771530,33.748154 156.774216,32.538532 
	C158.663330,30.259556 159.486130,27.096674 160.840927,23.516979 
z"/>
<path fill="#1A1A1A" opacity="1.000000" stroke="none" 
	d="
M4.580046,39.679535 
	C3.871368,34.808678 3.480597,30.060167 3.362028,25.304873 
	C3.225745,19.839140 3.330396,14.367400 3.330396,8.321795 
	C10.650330,8.321795 17.631784,7.772503 24.486250,8.470421 
	C31.903631,9.225655 33.550640,16.637989 27.992163,23.209978 
	C31.890795,25.409725 33.760532,28.677446 32.563118,33.138775 
	C31.268906,37.960739 27.485155,39.492214 23.006454,39.620880 
	C17.013624,39.793049 11.014601,39.749695 4.580046,39.679535 
M22.808926,29.435246 
	C20.647451,25.074512 17.052643,27.304823 13.545752,27.170328 
	C13.674608,29.210136 13.781260,30.898460 13.981368,34.066181 
	C17.524195,32.510967 20.123983,31.369726 22.808926,29.435246 
M20.513447,19.763031 
	C21.890879,15.181603 20.805250,14.453998 13.818975,15.484300 
	C13.818975,16.993366 13.818975,18.540020 13.818975,20.670866 
	C15.990700,20.460157 17.864340,20.278372 20.513447,19.763031 
z"/>
<path fill="#181818" opacity="1.000000" stroke="none" 
	d="
M78.589470,17.329113 
	C85.590942,15.398620 89.648064,16.436989 92.282951,20.763254 
	C95.148941,25.468971 94.459267,34.085564 90.517723,37.511059 
	C88.886421,38.928783 85.999146,40.604465 84.412262,40.055393 
	C79.363770,38.308571 74.384262,40.481079 69.122292,39.591675 
	C69.122292,29.239254 69.122292,19.021301 69.122292,8.503522 
	C71.779289,8.503522 74.359291,8.503522 77.250610,8.503522 
	C77.545364,11.452779 77.836624,14.367146 78.589470,17.329113 
M84.753304,26.877245 
	C83.486794,25.635010 82.220276,24.392775 80.953766,23.150543 
	C79.853096,24.415468 77.728958,25.807190 77.866661,26.918692 
	C78.145851,29.172199 79.303345,32.825832 80.714867,33.140747 
	C84.595978,34.006622 84.723915,30.509197 84.753304,26.877245 
z"/>
<path fill="#171717" opacity="1.000000" stroke="none" 
	d="
M45.011509,39.490150 
	C37.743149,35.842491 35.189968,29.660566 38.005680,23.331142 
	C40.747097,17.168722 48.707092,14.441481 56.092201,17.134361 
	C61.984268,19.282827 64.796013,25.252285 63.018509,31.839224 
	C61.208115,38.548054 54.833523,41.365467 45.011509,39.490150 
M47.647560,32.806419 
	C49.525681,32.677486 52.877678,32.931160 53.027607,32.353600 
	C53.687912,29.809961 53.746254,26.971020 53.296234,24.364498 
	C53.164429,23.601099 49.639362,22.491518 49.373981,22.839695 
	C48.005711,24.634903 46.982067,26.785082 46.284225,28.954851 
	C45.993465,29.858894 46.808502,31.118580 47.647560,32.806419 
z"/>
<path fill="#101010" opacity="1.000000" stroke="none" 
	d="
M160.796570,23.909107 
	C159.486130,27.096674 158.663330,30.259556 156.774216,32.538532 
	C155.771530,33.748154 152.630966,34.177021 150.993546,33.550972 
	C149.716141,33.062565 148.477921,30.327276 148.630600,28.724623 
	C148.886108,26.042618 149.694061,22.992315 151.353500,20.999844 
	C152.651703,19.441113 155.656631,18.539728 157.776382,18.733553 
	C158.934006,18.839403 159.828018,21.828274 160.796570,23.909107 
z"/>
<path fill="#E5E5E5" opacity="1.000000" stroke="none" 
	d="
M22.766350,29.831863 
	C20.123983,31.369726 17.524195,32.510967 13.981368,34.066181 
	C13.781260,30.898460 13.674608,29.210136 13.545752,27.170328 
	C17.052643,27.304823 20.647451,25.074512 22.766350,29.831863 
z"/>
<path fill="#E5E5E5" opacity="1.000000" stroke="none" 
	d="
M20.125713,19.929808 
	C17.864340,20.278372 15.990700,20.460157 13.818975,20.670866 
	C13.818975,18.540020 13.818975,16.993366 13.818975,15.484300 
	C20.805250,14.453998 21.890879,15.181603 20.125713,19.929808 
z"/>
<path fill="#E8E8E8" opacity="1.000000" stroke="none" 
	d="
M84.789352,27.262585 
	C84.723915,30.509197 84.595978,34.006622 80.714867,33.140747 
	C79.303345,32.825832 78.145851,29.172199 77.866661,26.918692 
	C77.728958,25.807190 79.853096,24.415468 80.953766,23.150543 
	C82.220276,24.392775 83.486794,25.635010 84.789352,27.262585 
z"/>
<path fill="#EDEDED" opacity="1.000000" stroke="none" 
	d="
M47.384140,32.511486 
	C46.808502,31.118580 45.993465,29.858894 46.284225,28.954851 
	C46.982067,26.785082 48.005711,24.634903 49.373981,22.839695 
	C49.639362,22.491518 53.164429,23.601099 53.296234,24.364498 
	C53.746254,26.971020 53.687912,29.809961 53.027607,32.353600 
	C52.877678,32.931160 49.525681,32.677486 47.384140,32.511486 
z"/>
</svg>